<svg id="Layer_1" data-name="Layer 1" xmlns="http://www.w3.org/2000/svg" viewBox="0 0 25.12 22"><title>icons</title><path d="M2.85,12.92a.45.45,0,0,1-.63,0A7.57,7.57,0,0,1,11.83,1.32a.45.45,0,1,1-.51.74A6.67,6.67,0,0,0,2.85,12.29.45.45,0,0,1,2.85,12.92Zm20.32-.21a1.88,1.88,0,0,1-.43,2,1.86,1.86,0,0,1-1.32.55l-.16,0a1.86,1.86,0,0,1-1.86,2l-.16,0a1.86,1.86,0,0,1-1.86,2l-.16,0A1.87,1.87,0,0,1,14,20.72l-.79-.79a1.85,1.85,0,0,1-.49.89l-.63.63A1.86,1.86,0,0,1,9,20L8.8,20a1.86,1.86,0,0,1-1.86-2l-.16,0a1.86,1.86,0,0,1-1.86-2l-.16,0a1.87,1.87,0,0,1-1.32-3.2l.63-.63a1.86,1.86,0,0,1,1.32-.55h0a1.87,1.87,0,0,1,1.87,1.87c0,.06,0,.12,0,.17a1.88,1.88,0,0,1,1.48.52,1.86,1.86,0,0,1,.55,1.32c0,.05,0,.1,0,.16a1.85,1.85,0,0,1,2,2,1.86,1.86,0,0,1,1.48.53l.06.07,0,0,1.82,1.82a1,1,0,1,0,1.38-1.38L11.6,14.25a.45.45,0,1,1,.63-.63l4.46,4.46a1,1,0,0,0,1.38-1.38l-4.45-4.46a.45.45,0,0,1,.63-.63l4.45,4.46a1,1,0,0,0,1.38-1.38l-4.45-4.46a.45.45,0,0,1,.63-.63L20.72,14a1,1,0,0,0,1.38,0,1,1,0,0,0,0-1.38l-7-7L11.5,9.29A3.16,3.16,0,0,1,7,9.29,1.3,1.3,0,0,1,7,7.45l5.17-5.17a7.57,7.57,0,0,1,11,10.43ZM5.46,14.78l.63-.63a1,1,0,1,0-1.38-1.38l-.63.63a1,1,0,0,0,0,1.38A1,1,0,0,0,5.46,14.78Zm2,2,.63-.63a1,1,0,0,0-1.38-1.38l-.63.63a1,1,0,1,0,1.38,1.38Zm2,2,.63-.63A1,1,0,0,0,8.74,16.8l-.63.63A1,1,0,0,0,9.49,18.8Zm2.64,0a1,1,0,0,0-1.38,0l-.63.63a1,1,0,0,0,1.38,1.38l.63-.63A1,1,0,0,0,12.13,18.81ZM22.28,2.91a6.67,6.67,0,0,0-9.43,0L7.67,8.08a.41.41,0,0,0,0,.57,2.26,2.26,0,0,0,3.19,0l3.93-3.93a.45.45,0,0,1,.63,0l7.22,7.22A6.69,6.69,0,0,0,22.28,2.91Z"/></svg>