<?xml version="1.0" encoding="utf-8"?>
<!-- Generated by IcoMoon.io -->
<!DOCTYPE svg PUBLIC "-//W3C//DTD SVG 1.1//EN" "http://www.w3.org/Graphics/SVG/1.1/DTD/svg11.dtd">
<svg version="1.1" xmlns="http://www.w3.org/2000/svg" xmlns:xlink="http://www.w3.org/1999/xlink" width="37" height="32" viewBox="0 0 37 32">
<path d="M4.145 18.793c-0.118 0.116-0.28 0.187-0.458 0.187s-0.34-0.071-0.458-0.187c-1.96-1.987-3.171-4.718-3.171-7.731 0-6.081 4.93-11.011 11.011-11.011 2.289 0 4.415 0.699 6.177 1.894 0.15 0.092 0.274 0.298 0.274 0.533 0 0.361-0.293 0.655-0.655 0.655-0.151 0-0.29-0.051-0.401-0.137-1.527-1.052-3.419-1.681-5.458-1.681-5.358 0-9.702 4.344-9.702 9.702 0 2.679 1.086 5.105 2.842 6.86 0.116 0.118 0.187 0.28 0.187 0.458s-0.071 0.34-0.187 0.458zM33.702 18.487c0.113 0.289 0.179 0.623 0.179 0.972 0 0.757-0.307 1.442-0.804 1.937-0.49 0.494-1.169 0.8-1.92 0.8h-0.233c0.005 0.061 0.008 0.132 0.008 0.204 0 1.494-1.211 2.705-2.705 2.705-0.003 0-0.005 0-0.008 0h-0.232c0.005 0.061 0.008 0.132 0.008 0.204 0 1.494-1.211 2.705-2.705 2.705-0.003 0-0.005 0-0.008 0h-0.232c0.008 0.076 0.012 0.165 0.012 0.254 0 1.502-1.218 2.72-2.72 2.72-0.777 0-1.479-0.326-1.974-0.849l-1.15-1.15c-0.119 0.509-0.369 0.948-0.713 1.295l-0.916 0.916c-0.475 0.42-1.102 0.677-1.79 0.677-1.494 0-2.705-1.211-2.705-2.705 0-0.028 0-0.057 0.001-0.085l-0.291 0.004c-0.002 0-0.005 0-0.008 0-1.494 0-2.705-1.211-2.705-2.705 0-0.072 0.003-0.143 0.008-0.213l-0.233 0.009c-0.002 0-0.005 0-0.008 0-1.494 0-2.705-1.211-2.705-2.705 0-0.072 0.003-0.143 0.008-0.213l-0.233 0.009c-0.002 0-0.005 0-0.008 0-1.502 0-2.72-1.218-2.72-2.72 0-0.757 0.309-1.441 0.808-1.934l0.917-0.917c0.49-0.494 1.169-0.8 1.92-0.8h0c1.502 0 2.72 1.218 2.72 2.72 0 0.087 0 0.175 0 0.247 0.076-0.007 0.164-0.012 0.253-0.012 0.739 0 1.409 0.293 1.901 0.769 0.493 0.489 0.799 1.169 0.799 1.919 0 0.073 0 0.145 0 0.233 0.068-0.006 0.148-0.010 0.228-0.010 1.486 0 2.691 1.205 2.691 2.691 0 0.080-0.003 0.16-0.010 0.238 0.076-0.018 0.163-0.022 0.25-0.022 0.742 0 1.414 0.299 1.903 0.783l0.087 0.102 2.647 2.647c0.262 0.409 0.714 0.676 1.229 0.676 0.803 0 1.455-0.651 1.455-1.455 0-0.514-0.267-0.966-0.67-1.225l-6.449-6.476c-0.16-0.121-0.262-0.31-0.262-0.524 0-0.361 0.293-0.655 0.655-0.655 0.213 0 0.403 0.102 0.522 0.26l6.488 6.489c0.221 0.142 0.49 0.226 0.779 0.226 0.803 0 1.455-0.651 1.455-1.455 0-0.289-0.084-0.558-0.23-0.785l-6.469-6.481c-0.082-0.108-0.131-0.245-0.131-0.393 0-0.361 0.293-0.655 0.655-0.655 0.148 0 0.285 0.049 0.394 0.132l6.471 6.486c0.221 0.142 0.49 0.226 0.779 0.226 0.803 0 1.455-0.651 1.455-1.455 0-0.289-0.084-0.558-0.23-0.785l-6.469-6.481c-0.082-0.108-0.131-0.245-0.131-0.393 0-0.361 0.293-0.655 0.655-0.655 0.148 0 0.285 0.049 0.394 0.132l6.486 6.399c0.261 0.249 0.614 0.402 1.004 0.402s0.743-0.153 1.004-0.402c0.248-0.26 0.401-0.614 0.401-1.003s-0.153-0.743-0.402-1.004l-10.181-10.181-5.236 5.338c-0.834 0.845-1.992 1.369-3.273 1.369s-2.439-0.524-3.272-1.368c-0.343-0.343-0.555-0.816-0.555-1.339s0.212-0.996 0.555-1.338l7.52-7.52c2.013-2.12 4.853-3.439 8-3.439 6.089 0 11.024 4.936 11.024 11.024 0 2.941-1.152 5.613-3.029 7.59zM7.942 21.498l0.916-0.916c0.409-0.262 0.676-0.714 0.676-1.229 0-0.803-0.651-1.455-1.455-1.455-0.514 0-0.966 0.267-1.225 0.67l-0.92 0.922c-0.249 0.261-0.402 0.614-0.402 1.004s0.153 0.743 0.402 1.004c0.26 0.248 0.614 0.401 1.003 0.401s0.743-0.153 1.004-0.402zM10.851 24.407l0.916-0.916c0.142-0.221 0.226-0.49 0.226-0.779 0-0.803-0.651-1.455-1.455-1.455-0.289 0-0.558 0.084-0.785 0.23l-0.911 0.913c-0.409 0.262-0.676 0.714-0.676 1.229 0 0.803 0.651 1.455 1.455 1.455 0.514 0 0.966-0.267 1.225-0.67zM13.76 27.316l0.916-0.916c0.105-0.196 0.166-0.428 0.166-0.675 0-0.803-0.651-1.455-1.455-1.455-0.247 0-0.48 0.062-0.683 0.17l-0.909 0.913c-0.133 0.215-0.211 0.476-0.211 0.755 0 0.803 0.651 1.455 1.455 1.455 0.283 0 0.547-0.081 0.77-0.22zM17.6 27.316c-0.261-0.249-0.614-0.402-1.004-0.402s-0.743 0.153-1.004 0.402l-0.916 0.916c-0.142 0.221-0.226 0.49-0.226 0.779 0 0.803 0.651 1.455 1.455 1.455 0.289 0 0.558-0.084 0.785-0.23l0.911-0.913c0.25-0.261 0.404-0.615 0.404-1.006 0-0.368-0.136-0.704-0.361-0.96zM32.407 4.233c-1.755-1.754-4.18-2.84-6.858-2.84s-5.103 1.085-6.858 2.84l-7.535 7.52c-0.104 0.107-0.168 0.253-0.168 0.415s0.064 0.307 0.168 0.415c0.594 0.592 1.414 0.958 2.32 0.958s1.726-0.366 2.32-0.958l5.716-5.716c0.118-0.116 0.28-0.187 0.458-0.187s0.34 0.071 0.458 0.187l10.502 10.502c1.43-1.683 2.299-3.881 2.299-6.281 0-2.673-1.078-5.095-2.823-6.854z"></path>
</svg>
