<?xml version="1.0" encoding="UTF-8"?>
<svg width="512px" height="512px" viewBox="0 0 512 512" version="1.1" xmlns="http://www.w3.org/2000/svg" xmlns:xlink="http://www.w3.org/1999/xlink">
    <!-- Generator: Sketch 49 (51002) - http://www.bohemiancoding.com/sketch -->
    <title>create</title>
    <desc>Created with Sketch.</desc>
    <defs></defs>
    <g id="Page-1" stroke="none" stroke-width="1" fill="none" fill-rule="evenodd">
        <g id="create" fill-rule="nonzero">
            <path d="M256.001,512 C397,512 512,397 512,255.999 C512,115 397,0 256.001,0 C115.001,0 0,115 0,255.999 C0,397 115.001,512 256.001,512 Z" id="Shape" fill="#FFCA4F"></path>
            <g id="008-student" transform="translate(151.000000, 185.000000)">
                <polygon id="Shape" fill="#F0B97D" points="138.009223 100 145.157173 100 166.841321 100 173.990024 100 176.904495 128.953403 182.08109 132.919869 193 139.555339 155.999247 223 119 139.555339 129.91891 132.919869 135.097765 128.955561"></polygon>
                <path d="M127.051833,135 L74.1269845,150.938381 C74.1269845,150.938381 68.9777972,153.467955 66.2614932,160.807783 C50.4965,176.746165 0,228.834555 0,242.058655 C0,257.729602 43.1011091,295.474234 43.1011091,295.474234 L63.5587933,295.474234 L63.5587933,309 L156.498866,309 L249.440451,309 L249.440451,295.474234 L269.899647,295.474234 C269.899647,295.474234 313,257.729602 313,242.058655 C313,228.83099 262.495942,176.739033 246.736239,160.802791 C244.016156,153.467955 238.871504,150.939095 238.871504,150.939095 L186.307922,135.218227 L181.848014,147.560862 L156.498866,146.39984 L131.518543,147.54446 L127.051833,135 Z M63.5587933,226.312827 L70.1182821,251.002377 L68.9581467,277.08544 L63.5587933,271.254655 L44.7222755,245.865496 L63.5587933,226.312827 Z M249.440451,271.256081 L244.044121,276.77165 L242.881718,246.472394 L249.440451,226.309974 L268.279992,245.866209 L249.440451,271.256081 Z" id="Shape" fill="#15BDB1"></path>
                <polygon id="Shape" fill="#F1F1F1" points="126.07354 136 119 138.162755 155.83632 224 193 138.356359 185.449684 136.063335 166.956817 147.018173 144.785649 147.018173"></polygon>
                <path d="M126.591859,135 L115.189703,138.438096 L113,165.763902 C113,165.763902 113.603093,168.009858 115.413127,167.808079 L125.702693,171.461502 C125.702693,171.461502 126.375983,172.098925 125.773645,172.902479 L116.96728,178.602218 L147.39215,232.766135 C150.240802,232.92157 153.111343,233 155.999245,233 C158.890166,233 161.759198,232.92157 164.607095,232.766135 L195.031965,178.602218 L186.226355,172.902479 C185.624017,172.098925 186.296552,171.461502 186.296552,171.461502 L196.585364,167.808079 C198.396907,168.009858 199,165.763902 199,165.763902 L196.815581,138.526508 L185.767431,135.217466 L155.997736,217.685428 L126.591859,135 Z" id="Shape" fill="#20D0C2"></path>
                <path d="M199.389017,41.9495222 C199.389017,44.6416146 200.429971,47.2790013 200.352242,49.8624023 C210.106425,48.1521318 205.396984,75.5186187 199.87825,79.2817895 C199.440074,79.580511 198.361017,78.9132464 197.451135,78.3647506 C195.536877,88.4313046 179.199383,115.326315 168.811941,126.64678 C165.926836,129.790913 148.287007,129.737647 145.430098,126.766988 C134.790419,115.703496 118.474263,88.4888895 116.550098,78.3647506 C115.637929,78.9139662 114.559635,79.580511 114.122221,79.2817895 C108.603487,75.5186187 103.893284,48.1521318 113.647467,49.8624023 C113.5705,47.2790013 114.609168,44.6416146 114.609168,41.9495222 C115.149458,20.6992677 135.533413,10.0899764 157.000235,10 C178.464009,10.0899764 198.850251,20.6992677 199.389017,41.9495222 Z" id="Shape" fill="#FED198"></path>
                <path d="M185.808219,14.5426292 C188.84986,14.2119897 199.841982,17.3604675 201.160404,28.236322 C202.481086,39.1128815 201.848636,49.1328802 201.848636,49.1328802 C201.848636,49.1328802 195.410307,50.6542449 194.599203,56.8264175 C193.789606,63 194.367028,63 194.367028,63 L192.03548,62.5107381 L190.374073,51.9267488 C180.740325,46.2819075 190.446439,37.9193363 180.810429,35.9608788 C154.787248,53.3071159 131.826814,50.3391151 121.472419,42.1781706 C121.472419,42.1781706 123.889902,50.7134639 122.025719,53.7554884 C120.16229,56.7996279 121.27492,61.5949583 121.27492,61.5949583 L118.854422,61.4849801 C118.854422,61.4849801 119.292388,48.9164487 113.919199,48.9714378 C93.5051504,17.448591 158.135692,-21.7099841 185.808219,14.5426292 Z" id="Shape" fill="#666666"></path>
                <g id="Group" transform="translate(127.000000, 126.000000)" fill="#FFFFFF">
                    <path d="M9.0851875,0.119846154 C9.849975,0.171730769 0.1715625,10.5545 0.1715625,10.5545 L8.4096125,37.3905385 L30.498475,21.7126154 C18.3480375,16.0425769 11.097425,8.69761538 9.0851875,0.119846154 Z" id="Shape"></path>
                    <path d="M51.9132875,0.119846154 C51.150025,0.171730769 60.8253875,10.5545 60.8253875,10.5545 L52.5858125,37.3905385 L30.498475,21.7126154 C42.6489125,16.0425769 49.9002875,8.69761538 51.9132875,0.119846154 Z" id="Shape"></path>
                </g>
                <path d="M61.5,281 C73.9275424,281 84,286.820748 84,294 C84,301.178544 73.9275424,307 61.5,307 C49.0724576,307 39,301.177836 39,294 C39,286.820748 49.0724576,281 61.5,281 Z M61.5,284.433802 C51.8285536,284.433802 43.9909534,288.720388 43.9909534,294 C43.9909534,299.282445 51.8285536,303.569031 61.5,303.569031 C71.1714464,303.569031 79.0105685,299.282445 79.0105685,294 C79.0098076,288.720388 71.1714464,284.433802 61.5,284.433802 Z" id="Shape" fill="#ECF0F1"></path>
                <path d="M61.4992395,304 C71.1378906,304 79,299.508255 79,294.00074 C79,288.492485 71.1378906,284 61.4992395,284 C51.8605884,284 44,288.492485 44,294.00074 C43.9992395,299.507515 51.8605884,304 61.4992395,304 Z" id="Shape" fill="#377BB9"></path>
                <path d="M54.6053375,299.875971 L54.6053375,310.584721 C54.6053375,311.912545 53.459094,312.999276 52.0526883,312.999276 L47.5526492,312.999276 C46.1485391,312.999276 45,311.912545 45,310.584721 L45,294.012982 C45,293.759581 45.042085,293.515591 45.1193685,293.285358 L45.1193685,289.637099 C45.1193685,286.536188 47.8005684,284 51.0786108,284 L87.9221544,284 C91.1994316,284 93.878336,286.535464 93.878336,289.637099 L93.878336,293.28029 C93.9586801,293.511247 94,293.757409 94,294.013706 L94,310.585445 C94,311.913269 92.8529912,313 91.4473508,313 L86.9480769,313 C85.5432016,313 84.3954276,311.913269 84.3954276,310.585445 L84.3954276,299.876695 L80.8679357,299.876695 L80.8679357,310.585445 C80.8679357,311.913269 79.7216921,313 78.3152865,313 L73.8152474,313 C72.4103721,313 71.2625982,311.913269 71.2625982,310.585445 L71.2625982,299.876695 L67.7366366,299.876695 L67.7366366,310.585445 C67.7366366,311.913269 66.5880975,313 65.1839874,313 L60.6839483,313 C59.2775427,313 58.1312991,311.913269 58.1312991,310.585445 L58.1312991,299.876695 L54.6053375,299.875971 Z" id="Shape" fill="#FBB429"></path>
                <path d="M251.498859,281 C239.073809,281 229,286.820748 229,294 C229,301.178544 239.073048,307 251.498859,307 C263.926191,307 274,301.177836 274,294 C274,286.820748 263.92543,281 251.498859,281 Z M251.498859,284.433802 C261.170142,284.433802 269.009131,288.720388 269.009131,294 C269.009131,299.282445 261.170902,303.569031 251.498859,303.569031 C241.827576,303.569031 233.990869,299.282445 233.990869,294 C233.990108,288.720388 241.826815,284.433802 251.498859,284.433802 Z" id="Shape" fill="#ECF0F1"></path>
                <path d="M251.499239,304 C261.13713,304 269,299.508255 269,294.00074 C269,288.492485 261.13713,284 251.499239,284 C241.860588,284 234,288.492485 234,294.00074 C233.999239,299.507515 241.860588,304 251.499239,304 Z" id="Shape" fill="#333333"></path>
                <path d="M259.395428,299.875971 L259.395428,310.584721 C259.395428,311.912545 260.541671,312.999276 261.948077,312.999276 L266.448116,312.999276 C267.853756,312.999276 269,311.912545 269,310.584721 L269,294.012982 C269,293.759581 268.957915,293.515591 268.880632,293.285358 L268.880632,289.637099 C268.880632,286.536188 266.200962,284 262.92292,284 L226.078611,284 C222.801334,284 220.120899,286.535464 220.120899,289.637099 L220.120899,293.28029 C220.040555,293.511247 220,293.757409 220,294.013706 L220,310.585445 C220,311.913269 221.146244,313 222.551884,313 L227.052688,313 C228.456033,313 229.604572,311.913269 229.604572,310.585445 L229.604572,299.876695 L233.131299,299.876695 L233.131299,310.585445 C233.131299,311.913269 234.279838,313 235.683948,313 L240.183987,313 C241.590393,313 242.736637,311.913269 242.736637,310.585445 L242.736637,299.876695 L246.264129,299.876695 L246.264129,310.585445 C246.264129,311.913269 247.411137,313 248.816778,313 L253.316817,313 C254.720927,313 255.867171,311.913269 255.867171,310.585445 L255.867171,299.876695 L259.395428,299.875971 Z" id="Shape" fill="#FBB429"></path>
                <path d="M56.5494075,178 L255.451346,178 C261.803596,178 267,182.961663 267,189.023918 L267,293.973922 C267,300.036897 261.803596,305 255.451346,305 L56.5494075,305 C50.197158,305 45,300.036897 45,293.973922 L45,189.023918 C45,182.961663 50.197158,178 56.5494075,178 Z" id="Shape" fill="#FFFFFF"></path>
                <path d="M49.383573,311 L262.617935,311 C265.028372,311 267,312.832414 267,315.074599 L267,322.926802 C267,325.169687 265.027618,327 262.617935,327 L49.383573,327 C46.9723817,327 45,325.169687 45,322.926802 L45,315.074599 C45,312.832414 46.9723817,311 49.383573,311 Z" id="Shape" fill="#C8CACC"></path>
                <g id="Group" transform="translate(79.000000, 226.000000)" fill="#ECF0F1">
                    <path d="M0.0205096154,76.273712 L19.009375,76.273712 L19.009375,88.40904 L0.0205096154,88.40904 L0.0205096154,76.273712 Z M138.993663,76.273712 L157.982529,76.273712 L157.982529,88.40904 L138.993663,88.40904 L138.993663,76.273712 Z" id="Shape"></path>
                    <path d="M57.9328269,0.242792 L100.065654,0.242792 C100.631567,0.242792 101.091894,0.674264 101.091894,1.204704 L101.091894,10.144576 C101.091894,10.674304 100.631567,11.105064 100.065654,11.105064 L57.9328269,11.105064 C57.3676731,11.105064 56.9081058,10.674304 56.9081058,10.144576 L56.9081058,1.204704 C56.9088654,0.674264 57.3676731,0.242792 57.9328269,0.242792 Z" id="Shape"></path>
                </g>
            </g>
            <g id="tap" transform="translate(65.000000, 25.000000)">
                <path d="M132,8.84013214 L132,212.159868 C132,217.051389 128.22664,221 123.615353,221 L8.38419934,221 C5.78492297,221 3.43720392,219.762136 1.90010817,217.788066 C0.698720579,216.25572 0,214.31091 0,212.159868 L0,8.84013214 C6.36093314e-15,3.94861123 3.7447126,0 8.38419934,0 L123.615353,0 C126.214182,0 128.534149,1.23739197 130.071692,3.21193355 C131.273528,4.74427976 132,6.68861802 132,8.84013214 Z" id="Shape" fill="#64798A"></path>
                <path d="M133,8.63367549 L133,212.151265 C133,217.047546 129.200534,221 124.557343,221 L8.52895195,221 C5.91169225,221 3.54773029,219.760932 2,217.784941 L131.058351,3 C132.268501,4.53383736 133,6.48006769 133,8.63367549 Z" id="Shape" fill="#3A556A"></path>
                <rect id="Rectangle-path" fill="#EBF0F3" x="10" y="24" width="114" height="164"></rect>
                <polygon id="Shape" fill="#E1E6E9" points="124 188 20 188 118.70693 24 124 24"></polygon>
                <path d="M86.1874718,16 L46.8125282,16 C45.2594216,16 44,14.6571108 44,13 C44,11.3433696 45.2589712,10 46.8125282,10 L86.1874718,10 C87.7405784,10 89,11.3428892 89,13 C89,14.6571108 87.7405784,16 86.1874718,16 Z" id="Shape" fill="#EBF0F3"></path>
                <path d="M77,203.50046 C77,209.049247 73.2599295,213.649063 68.2549648,214.741232 C67.5401586,214.913897 66.7698591,215 66,215 C59.9221653,215 55,209.853639 55,203.5 C55,197.146361 59.9221653,192 66,192 C66.7698591,192 67.5397181,192.086103 68.2549648,192.258768 C73.2599295,193.351858 77,197.951674 77,203.50046 Z" id="Shape" fill="#D5D6DB"></path>
                <path d="M77,205.500236 C77,211.176869 73.1507895,215.882667 67.9997734,217 C62.8487573,215.882196 59,211.176398 59,205.500236 C59,199.823602 62.8492105,195.117804 67.9997734,194 C73.1507895,195.117804 77,199.823602 77,205.500236 Z" id="Shape" fill="#EBF0F3"></path>
                <ellipse id="Oval" fill="#27A2DB" cx="55.5" cy="72" rx="22.5" ry="24"></ellipse>
                <ellipse id="Oval" fill="#FCD462" cx="55" cy="69.5" rx="11" ry="11.5"></ellipse>
                <path d="M94.5240971,106.483068 C90.9478725,106.483068 88.0481942,109.495237 88.0481942,113.211249 L88.0481942,109.340344 C88.0481942,105.624332 85.1489691,102.612163 81.5722914,102.612163 C77.9960668,102.612163 75.0963885,105.624332 75.0963885,109.340344 L75.0963885,104.917192 C75.0963885,101.20118 72.1971633,98.1890112 68.6204856,98.1890112 C65.044261,98.1890112 62.1445827,101.201651 62.1445827,104.917192 L62.1445827,74.7281811 C62.1445827,71.0121687 59.2453576,68 55.6686798,68 C52.0924553,68 49.192777,71.0126395 49.192777,74.7281811 L49.192777,121.376307 L43.591445,114.730045 C41.3601564,112.082274 37.4925592,111.337942 34.7342623,113.381207 C31.5622435,115.731433 31.102754,120.338667 33.6041173,123.306581 L53.9789001,156.470097 C56.4866075,162.269393 62.0367341,166 68.1560114,166 L85.4575612,166 C94.0414971,166 101,158.770418 101,149.852083 L101,122.819305 L101,113.211249 C101,109.495237 98.1007749,106.483068 94.5240971,106.483068 Z" id="Shape" fill="#E56353"></path>
            </g>
        </g>
    </g>
</svg>