<?xml version="1.0" encoding="utf-8"?>
<!-- Generated by IcoMoon.io -->
<!DOCTYPE svg PUBLIC "-//W3C//DTD SVG 1.1//EN" "http://www.w3.org/Graphics/SVG/1.1/DTD/svg11.dtd">
<svg version="1.1" xmlns="http://www.w3.org/2000/svg" xmlns:xlink="http://www.w3.org/1999/xlink" width="32" height="32" viewBox="0 0 32 32">
<path d="M17.531 32c-0.006 0-0.013 0-0.021 0-1.026 0-1.955-0.415-2.628-1.087l-13.78-13.78c-0.681-0.677-1.102-1.614-1.102-2.65 0-0.005 0-0.010 0-0.015v-10.717c0-2.072 1.679-3.751 3.751-3.751h10.718c0.006-0 0.013-0 0.021-0 1.026 0 1.955 0.415 2.628 1.087l13.78 13.78c0.679 0.684 1.099 1.624 1.102 2.663 0 0.003 0 0.007 0 0.010 0 1.035-0.428 1.97-1.117 2.638l-10.719 10.719c-0.665 0.68-1.592 1.102-2.618 1.102-0.006 0-0.011 0-0.017-0zM3.751 1.378c-1.311 0-2.373 1.063-2.373 2.373v10.718c0.001 0.659 0.27 1.255 0.704 1.684l13.78 13.78c0.433 0.413 1.021 0.668 1.669 0.668s1.236-0.254 1.67-0.669l10.717-10.717c0.435-0.421 0.704-1.010 0.704-1.662 0-0.008-0-0.016-0-0.024-0.004-0.657-0.273-1.252-0.704-1.683l-13.78-13.78c-0.424-0.426-1.011-0.689-1.659-0.689-0.003 0-0.007 0-0.010 0zM6.048 9.034c-1.691 0-3.062-1.371-3.062-3.062s1.371-3.062 3.062-3.062c1.691 0 3.062 1.371 3.062 3.062s-1.371 3.062-3.062 3.062zM6.048 4.44c-0.846 0-1.531 0.686-1.531 1.531s0.686 1.531 1.531 1.531c0.846 0 1.531-0.686 1.531-1.531-0.040-0.829-0.702-1.491-1.527-1.531z"></path>
</svg>
