<?xml version="1.0" encoding="UTF-8"?>
<svg width="45px" height="41px" viewBox="0 0 45 41" version="1.1" xmlns="http://www.w3.org/2000/svg" xmlns:xlink="http://www.w3.org/1999/xlink">
    <!-- Generator: Sketch 49 (51002) - http://www.bohemiancoding.com/sketch -->
    <title>Shape</title>
    <desc>Created with Sketch.</desc>
    <defs></defs>
    <g id="Page-1" stroke="none" stroke-width="1" fill="none" fill-rule="evenodd">
        <g id="whatsapp_icon" fill="#000000" fill-rule="nonzero">
            <path d="M44.129,30.344 C43.856,29.897 43.135,29.627 42.053,29.09 C40.969,28.553 35.643,25.952 34.653,25.596 C33.66,25.237 32.936,25.057 32.215,26.132 C31.494,27.208 29.418,29.627 28.785,30.344 C28.153,31.063 27.522,31.153 26.438,30.615 C25.356,30.078 21.867,28.942 17.73,25.281 C14.511,22.434 12.337,18.917 11.705,17.841 C11.074,16.766 11.639,16.185 12.18,15.65 C12.668,15.168 13.264,14.395 13.805,13.768 C14.348,13.14 14.528,12.693 14.887,11.975 C15.25,11.258 15.069,10.631 14.797,10.092 C14.527,9.555 12.359,4.267 11.457,2.116 C10.555,-0.035 9.654,0.323 9.021,0.323 C8.39,0.323 7.667,0.233 6.945,0.233 C6.223,0.233 5.049,0.502 4.056,1.577 C3.064,2.653 0.267,5.253 0.267,10.54 C0.267,15.828 4.146,20.937 4.689,21.654 C5.23,22.37 12.179,33.574 23.189,37.877 C34.2,42.177 34.2,40.742 36.186,40.562 C38.17,40.383 42.592,37.963 43.498,35.455 C44.398,32.943 44.398,30.792 44.129,30.344" id="Shape"></path>
        </g>
    </g>
</svg>