<?xml version="1.0" encoding="utf-8"?>
<!-- Generated by IcoMoon.io -->
<!DOCTYPE svg PUBLIC "-//W3C//DTD SVG 1.1//EN" "http://www.w3.org/Graphics/SVG/1.1/DTD/svg11.dtd">
<svg version="1.1" xmlns="http://www.w3.org/2000/svg" xmlns:xlink="http://www.w3.org/1999/xlink" width="32" height="32" viewBox="0 0 32 32">
<path d="M12.576 13.68c-0.347 0-0.629-0.282-0.629-0.629 0-0.725-0.588-1.314-1.314-1.314s-1.314 0.588-1.314 1.314c0 0.347-0.282 0.629-0.629 0.629s-0.629-0.282-0.629-0.629c0-1.42 1.151-2.571 2.571-2.571s2.571 1.151 2.571 2.571c0 0.347-0.282 0.629-0.629 0.629zM23.336 13.68c-0.347 0-0.629-0.282-0.629-0.629 0-0.725-0.588-1.314-1.314-1.314s-1.314 0.588-1.314 1.314c0 0.347-0.282 0.629-0.629 0.629s-0.629-0.282-0.629-0.629c0-1.42 1.151-2.571 2.571-2.571s2.571 1.151 2.571 2.571c0 0.347-0.282 0.629-0.629 0.629zM12.479 20.458s0 0.098 0 0.14c0.082 1.733 1.507 3.106 3.252 3.106 0.055 0 0.11-0.001 0.165-0.004 0.039 0.003 0.094 0.004 0.149 0.004 1.745 0 3.17-1.373 3.252-3.099s0-0.105 0-0.147zM16 32c-8.837 0-16-7.163-16-16s7.163-16 16-16c8.837 0 16 7.163 16 16-0.008 8.833-7.167 15.992-15.999 16zM16 1.258c-8.142 0-14.742 6.6-14.742 14.742s6.6 14.742 14.742 14.742c8.142 0 14.742-6.6 14.742-14.742-0.008-8.139-6.604-14.734-14.742-14.742z"></path>
</svg>
