<svg id="Layer_1" data-name="Layer 1" xmlns="http://www.w3.org/2000/svg" viewBox="0 0 22.9 22.9"><title>icons</title><path d="M9,9.79a.45.45,0,0,1-.45-.45.94.94,0,1,0-1.88,0,.45.45,0,0,1-.9,0,1.84,1.84,0,1,1,3.68,0A.45.45,0,0,1,9,9.79Z"/><path d="M16.7,9.79a.45.45,0,0,1-.45-.45.94.94,0,1,0-1.88,0,.45.45,0,0,1-.9,0,1.84,1.84,0,1,1,3.68,0A.45.45,0,0,1,16.7,9.79Z"/><path d="M8.93,14.64s0,.07,0,.1a2.33,2.33,0,0,0,2.44,2.22,2.33,2.33,0,0,0,2.44-2.22s0-.07,0-.1Z"/><path d="M11.45,22.9A11.45,11.45,0,1,1,22.9,11.45,11.46,11.46,0,0,1,11.45,22.9Zm0-22A10.55,10.55,0,1,0,22,11.45,10.56,10.56,0,0,0,11.45.9Z"/></svg>