<svg id="Layer_1" data-name="Layer 1" xmlns="http://www.w3.org/2000/svg" viewBox="0 0 20.9 20.9"><title>icons</title><path d="M11.45,20.9a2.43,2.43,0,0,1-1.73-.71l-9-9A2.44,2.44,0,0,1,0,9.45v-7A2.45,2.45,0,0,1,2.45,0h7a2.43,2.43,0,0,1,1.73.71l9,9a2.48,2.48,0,0,1,.72,1.74,2.4,2.4,0,0,1-.73,1.73l-7,7A2.39,2.39,0,0,1,11.45,20.9Zm-9-20A1.55,1.55,0,0,0,.9,2.45v7a1.55,1.55,0,0,0,.46,1.1l9,9a1.58,1.58,0,0,0,2.18,0l7-7A1.51,1.51,0,0,0,20,11.45a1.57,1.57,0,0,0-.46-1.1l-9-9A1.53,1.53,0,0,0,9.45.9Zm1.5,5a2,2,0,1,1,2-2A2,2,0,0,1,3.95,5.9Zm0-3a1,1,0,1,0,1,1A1.05,1.05,0,0,0,3.95,2.9Z"/></svg>