<?xml version="1.0" encoding="utf-8"?>
<!-- Generated by IcoMoon.io -->
<!DOCTYPE svg PUBLIC "-//W3C//DTD SVG 1.1//EN" "http://www.w3.org/Graphics/SVG/1.1/DTD/svg11.dtd">
<svg version="1.1" xmlns="http://www.w3.org/2000/svg" xmlns:xlink="http://www.w3.org/1999/xlink" width="32" height="32" viewBox="0 0 32 32">
<path d="M31.056 15.328l-14.4-14.4c-0.578-0.574-1.374-0.928-2.253-0.928-0.001 0-0.002 0-0.003 0h-11.2c-1.767 0-3.2 1.433-3.2 3.2v11.2c0 0.001 0 0.002 0 0.003 0 0.887 0.361 1.69 0.944 2.269l14.4 14.4c0.578 0.574 1.374 0.928 2.253 0.928 0.001 0 0.002 0 0.003 0 0.882-0.004 1.679-0.364 2.256-0.944l11.2-11.2c0.58-0.577 0.94-1.374 0.944-2.255 0-0.002 0-0.002 0-0.003 0-0.887-0.361-1.69-0.944-2.269zM5.6 8c-1.325 0-2.4-1.075-2.4-2.4s1.075-2.4 2.4-2.4c1.325 0 2.4 1.075 2.4 2.4s-1.075 2.4-2.4 2.4z"></path>
</svg>
